<mxfile host="app.diagrams.net" modified="2024-04-23T07:29:28.515Z" agent="Mozilla/5.0 (Macintosh; Intel Mac OS X 10_15_7) AppleWebKit/537.36 (KHTML, like Gecko) Chrome/124.0.0.0 Safari/537.36" version="24.2.8" etag="D2KYnw4kjQ-X6oN4Y5kD" type="github">
  <diagram name="Page-1" id="xfhCPvPlXiyZ1b_Tf6DF">
    <mxGraphModel>
      <root>
        <mxCell id="0" />
        <mxCell id="1" parent="0" />
      </root>
    </mxGraphModel>
  </diagram>
</mxfile>
